<svg width="2700" height="600" viewBox="0 0 2700 600" fill="none" xmlns="http://www.w3.org/2000/svg">
<path d="M2400.62 315.24V591.607H2278.52V106.766H2400.62V165.607H2418.66C2451.79 121.676 2510.83 97.8465 2569.88 97.8465C2653.91 97.8465 2700 146.703 2700 212.467V591.607H2577.9V218.857H2489.73C2443.77 219.523 2400.62 253.47 2400.62 315.24ZM2095.37 291.277C2092.3 235.498 2057.3 192.498 1995.18 192.498C1981.78 191.765 1968.38 193.789 1955.81 198.443C1943.24 203.097 1931.77 210.281 1922.1 219.549C1912.44 228.816 1904.79 239.968 1899.65 252.308C1894.5 264.649 1891.96 277.915 1892.18 291.277H2095.37ZM2217.47 380.072H1889.1C1892.18 443.972 1929.18 496.822 2000.25 496.822C2049.28 496.822 2096.3 470.197 2103.38 422.006H2215.47C2202.11 533.698 2126.36 598.529 1998.25 598.529C1852.1 598.529 1769.01 510.8 1769.01 348.255C1769.01 190.501 1850.1 97.8465 1998.25 97.8465C2149.34 97.8465 2229.49 196.492 2217.47 380.072ZM1477.65 202.882V591.607H1599.75V218.857H1743.89V106.1H1580.78C1527.74 106.766 1477.65 140.713 1477.65 202.882ZM1156.36 202.882V591.607H1278.46V218.857H1422.61V106.1H1259.36C1206.32 106.766 1156.36 140.713 1156.36 202.882ZM812.899 504.277C771.886 504.277 746.905 483.244 746.905 445.303C746.905 404.434 774.825 376.477 836.945 376.477H926.05V386.461C926.387 401.582 923.724 416.621 918.214 430.714C912.705 444.807 904.457 457.678 893.944 468.587C883.432 479.496 870.86 488.229 856.953 494.285C843.045 500.341 828.074 503.601 812.899 503.878V504.277ZM771.886 599.994C800.651 600.216 829.094 593.962 855.094 581.699C881.094 569.436 903.979 551.48 922.042 529.172H940.077C944.085 575.1 974.143 592.006 1026.11 592.006H1083.29V492.296H1043.21V205.545C1043.21 141.645 991.108 106.766 932.061 106.766H671.827L663.812 214.464H926.05V293.274H801.944C689.728 293.274 628.276 347.19 628.276 446.901C628.677 533.698 676.77 599.594 771.886 599.594V599.994ZM485.602 0.931972L451.536 488.834H426.555L402.508 194.495C402.113 181.44 399.124 168.593 393.713 156.697C388.302 144.801 380.578 134.092 370.987 125.191C361.395 116.289 350.128 109.371 337.836 104.838C325.544 100.304 312.472 98.2445 299.377 98.7785H279.338C253.09 97.8746 227.542 107.318 208.236 125.062C188.929 142.806 177.421 167.419 176.206 193.563L152.16 487.902H127.178L108.208 214.464H0L19.1036 502.813C19.5315 515.939 22.5745 528.849 28.0557 540.792C33.537 552.735 41.3469 563.472 51.0311 572.379C60.7153 581.286 72.0805 588.185 84.4652 592.675C96.8499 597.164 110.007 599.154 123.171 598.529H152.16C178.563 599.428 204.247 589.858 223.58 571.915C242.913 553.972 254.317 529.122 255.292 502.813L279.338 208.473H299.377L323.423 502.813C323.818 515.868 326.808 528.715 332.218 540.611C337.629 552.507 345.354 563.216 354.945 572.118C364.536 581.02 375.803 587.937 388.095 592.471C400.387 597.005 413.459 599.063 426.555 598.529H454.475C467.588 599.136 480.691 597.128 493.014 592.621C505.338 588.114 516.634 581.199 526.24 572.284C535.847 563.368 543.569 552.631 548.956 540.702C554.342 528.772 557.283 515.891 557.607 502.813L593.677 0L485.602 0.931972Z" fill="white"/>
</svg>
