<svg width="140" height="32" viewBox="0 0 140 32" fill="none" xmlns="http://www.w3.org/2000/svg">
  <path
    d="M124.477 16.8007V31.3247H118.146V5.8448H124.477V8.93707H125.412C127.13 6.62835 130.191 5.37602 133.253 5.37602C137.61 5.37602 140 7.94359 140 11.3997V31.3247H133.669V11.7355H129.097C126.714 11.7705 124.477 13.5545 124.477 16.8007ZM108.649 15.5414C108.489 12.61 106.675 10.3503 103.454 10.3503C102.759 10.3117 102.064 10.4181 101.413 10.6627C100.761 10.9072 100.166 11.2848 99.6646 11.7719C99.1635 12.2589 98.7671 12.8449 98.5002 13.4935C98.2332 14.142 98.1014 14.8392 98.1129 15.5414H108.649ZM114.98 20.2078H97.9536C98.1129 23.566 100.032 26.3434 103.717 26.3434C106.259 26.3434 108.697 24.9442 109.064 22.4116H114.876C114.183 28.2814 110.256 31.6885 103.613 31.6885C96.0348 31.6885 91.7263 27.078 91.7263 18.5357C91.7263 10.2453 95.9309 5.37602 103.613 5.37602C111.447 5.37602 115.603 10.5602 114.98 20.2078ZM76.6187 10.896V31.3247H82.9499V11.7355H90.424V5.80978H81.9663C79.2163 5.84476 76.6187 7.62879 76.6187 10.896ZM59.9594 10.896V31.3247H66.2906V11.7355H73.7648V5.80978H65.3001C62.5501 5.84476 59.9594 7.62879 59.9594 10.896ZM42.1503 26.7352C40.0238 26.7352 38.7284 25.6298 38.7284 23.6359C38.7284 21.4881 40.1761 20.0189 43.3972 20.0189H48.0174V20.5436C48.0349 21.3383 47.8968 22.1286 47.6111 22.8693C47.3254 23.6099 46.8978 24.2863 46.3527 24.8596C45.8076 25.4329 45.1557 25.8918 44.4346 26.2101C43.7134 26.5284 42.9372 26.6997 42.1503 26.7142V26.7352ZM40.0237 31.7654C41.5152 31.7771 42.9901 31.4485 44.3382 30.804C45.6864 30.1595 46.873 29.2159 47.8096 28.0435H48.7447C48.9525 30.4572 50.5111 31.3457 53.2057 31.3457H56.1704V26.1056H54.0923V11.0359C54.0923 7.67777 51.3908 5.8448 48.3291 5.8448H34.8355L34.4199 11.5046H48.0174V15.6463H41.5823C35.7637 15.6463 32.5773 18.4798 32.5773 23.7199C32.5981 28.2814 35.0918 31.7444 40.0237 31.7444V31.7654ZM25.1794 0.282865L23.413 25.9237H22.1177L20.8708 10.4552C20.8503 9.76914 20.6953 9.09399 20.4147 8.46881C20.1342 7.84364 19.7337 7.28085 19.2363 6.81304C18.739 6.34523 18.1548 5.98168 17.5174 5.74342C16.8801 5.50517 16.2023 5.39694 15.5232 5.425H14.4842C13.1232 5.3775 11.7985 5.8738 10.7974 6.80629C9.79635 7.73879 9.1996 9.03228 9.13661 10.4062L7.88976 25.8747H6.59443L5.61081 11.5046H0L0.990555 26.6583C1.01274 27.3481 1.17053 28.0265 1.45474 28.6542C1.73896 29.2818 2.14391 29.8461 2.64606 30.3142C3.1482 30.7823 3.73751 31.1449 4.37968 31.3808C5.02185 31.6167 5.70406 31.7213 6.38662 31.6885H7.88976C9.25883 31.7357 10.5906 31.2327 11.593 30.2898C12.5955 29.3468 13.1868 28.0409 13.2373 26.6583L14.4842 11.1898H15.5232L16.7701 26.6583C16.7906 27.3444 16.9456 28.0195 17.2261 28.6447C17.5067 29.2699 17.9072 29.8327 18.4045 30.3005C18.9019 30.7683 19.4861 31.1318 20.1235 31.3701C20.7608 31.6083 21.4386 31.7165 22.1177 31.6885H23.5654C24.2453 31.7203 24.9247 31.6148 25.5637 31.3779C26.2027 31.1411 26.7884 30.7777 27.2865 30.3092C27.7846 29.8406 28.1851 29.2764 28.4644 28.6494C28.7437 28.0225 28.8962 27.3455 28.913 26.6583L30.7832 0.233887L25.1794 0.282865Z"
    fill="#FFFFFF" />
</svg>